REM DIRINDEX 1\3,1\2\4,1\2\5,1\2\6
REM DIRNAME folder01,folder02,folder03,folder04,folder05,folder06
TITLE ""
FILE "143.mp3" MP3
  TRACK 01 AUDIO
    TITLE "0:"
    INDEX 01 00:00:00
  TRACK 02 AUDIO
    TITLE "4:cjc137_6205"
    INDEX 01 00:00:05
  TRACK 03 AUDIO
    TITLE "0:"
    INDEX 01 00:01:24
  TRACK 04 AUDIO
    TITLE "6:cjc137_6206"
    INDEX 01 00:01:34
  TRACK 05 AUDIO
    TITLE "0:"
    INDEX 01 00:02:36
  TRACK 06 AUDIO
    TITLE "5:cjc137_6207"
    INDEX 01 00:02:45
  TRACK 07 AUDIO
    TITLE "0:"
    INDEX 01 00:03:66
  TRACK 08 AUDIO
    TITLE "4:cjc137_6208"
    INDEX 01 00:05:01
  TRACK 09 AUDIO
    TITLE "0:"
    INDEX 01 00:06:20
  TRACK 10 AUDIO
    TITLE "6:cjc137_6209"
    INDEX 01 00:06:28
  TRACK 11 AUDIO
    TITLE "0:"
    INDEX 01 00:07:45
  TRACK 12 AUDIO
    TITLE "5:cjc137_6210"
    INDEX 01 00:07:51
  TRACK 13 AUDIO
    TITLE "0:"
    INDEX 01 00:08:68
  TRACK 14 AUDIO
    TITLE "4:cjc137_6211"
    INDEX 01 00:10:02
  TRACK 15 AUDIO
    TITLE "0:"
    INDEX 01 00:11:21
  TRACK 16 AUDIO
    TITLE "6:cjc137_6212"
    INDEX 01 00:11:29
  TRACK 17 AUDIO
    TITLE "0:"
    INDEX 01 00:12:44
  TRACK 18 AUDIO
    TITLE "5:cjc137_6213"
    INDEX 01 00:12:50
  TRACK 19 AUDIO
    TITLE "0:"
    INDEX 01 00:13:69
  TRACK 20 AUDIO
    TITLE "4:cjc137_6214"
    INDEX 01 00:15:01
  TRACK 21 AUDIO
    TITLE "0:"
    INDEX 01 00:16:08
  TRACK 22 AUDIO
    TITLE "6:cjc137_6215"
    INDEX 01 00:16:20
  TRACK 23 AUDIO
    TITLE "0:"
    INDEX 01 00:17:45
  TRACK 24 AUDIO
    TITLE "5:cjc137_6216"
    INDEX 01 00:17:47
  TRACK 25 AUDIO
    TITLE "0:"
    INDEX 01 00:18:56
  TRACK 26 AUDIO
    TITLE "4:cjc137_6217"
    INDEX 01 00:19:69
  TRACK 27 AUDIO
    TITLE "0:"
    INDEX 01 00:21:00
  TRACK 28 AUDIO
    TITLE "6:cjc137_6218"
    INDEX 01 00:21:06
  TRACK 29 AUDIO
    TITLE "0:"
    INDEX 01 00:22:21
  TRACK 30 AUDIO
    TITLE "5:cjc137_6219"
    INDEX 01 00:22:25
  TRACK 31 AUDIO
    TITLE "0:"
    INDEX 01 00:23:30
  TRACK 32 AUDIO
    TITLE "4:cjc137_6220"
    INDEX 01 00:24:37
  TRACK 33 AUDIO
    TITLE "0:"
    INDEX 01 00:25:46
  TRACK 34 AUDIO
    TITLE "6:cjc137_6221"
    INDEX 01 00:25:52
  TRACK 35 AUDIO
    TITLE "0:"
    INDEX 01 00:26:62
  TRACK 36 AUDIO
    TITLE "5:cjc137_6222"
    INDEX 01 00:26:69
  TRACK 37 AUDIO
    TITLE "0:"
    INDEX 01 00:28:06
  TRACK 38 AUDIO
    TITLE "4:cjc137_6223"
    INDEX 01 00:29:13
  TRACK 39 AUDIO
    TITLE "0:"
    INDEX 01 00:30:44
  TRACK 40 AUDIO
    TITLE "6:cjc137_6224"
    INDEX 01 00:30:52
  TRACK 41 AUDIO
    TITLE "0:"
    INDEX 01 00:32:05
  TRACK 42 AUDIO
    TITLE "5:cjc137_6225"
    INDEX 01 00:32:15
  TRACK 43 AUDIO
    TITLE "0:"
    INDEX 01 00:33:50
  TRACK 44 AUDIO
    TITLE "4:cjc137_6226"
    INDEX 01 00:34:55
  TRACK 45 AUDIO
    TITLE "0:"
    INDEX 01 00:35:74
  TRACK 46 AUDIO
    TITLE "6:cjc137_6227"
    INDEX 01 00:36:05
  TRACK 47 AUDIO
    TITLE "0:"
    INDEX 01 00:37:20
  TRACK 48 AUDIO
    TITLE "5:cjc137_6228"
    INDEX 01 00:37:26
  TRACK 49 AUDIO
    TITLE "0:"
    INDEX 01 00:38:45
  TRACK 50 AUDIO
    TITLE "4:cjc137_6229"
    INDEX 01 00:39:52
  TRACK 51 AUDIO
    TITLE "0:"
    INDEX 01 00:40:72
  TRACK 52 AUDIO
    TITLE "6:cjc137_6230"
    INDEX 01 00:41:02
  TRACK 53 AUDIO
    TITLE "0:"
    INDEX 01 00:42:45
  TRACK 54 AUDIO
    TITLE "5:cjc137_6231"
    INDEX 01 00:42:51
  TRACK 55 AUDIO
    TITLE "0:"
    INDEX 01 00:43:68
  TRACK 56 AUDIO
    TITLE "4:cjc137_6232"
    INDEX 01 00:45:10
  TRACK 57 AUDIO
    TITLE "0:"
    INDEX 01 00:46:35
  TRACK 58 AUDIO
    TITLE "6:cjc137_6233"
    INDEX 01 00:46:43
  TRACK 59 AUDIO
    TITLE "0:"
    INDEX 01 00:47:44
  TRACK 60 AUDIO
    TITLE "5:cjc137_6234"
    INDEX 01 00:47:60
  TRACK 61 AUDIO
    TITLE "0:"
    INDEX 01 00:49:12
  TRACK 62 AUDIO
    TITLE "4:cjc137_6235"
    INDEX 01 00:50:19
  TRACK 63 AUDIO
    TITLE "0:"
    INDEX 01 00:51:26
  TRACK 64 AUDIO
    TITLE "6:cjc137_6236"
    INDEX 01 00:51:42
  TRACK 65 AUDIO
    TITLE "0:"
    INDEX 01 00:52:41
  TRACK 66 AUDIO
    TITLE "5:cjc137_6237"
    INDEX 01 00:52:45
  TRACK 67 AUDIO
    TITLE "0:"
    INDEX 01 00:53:57
  TRACK 68 AUDIO
    TITLE "4:cjc137_6238"
    INDEX 01 00:55:01
  TRACK 69 AUDIO
    TITLE "0:"
    INDEX 01 00:56:14
  TRACK 70 AUDIO
    TITLE "6:cjc137_6239"
    INDEX 01 00:56:20
  TRACK 71 AUDIO
    TITLE "0:"
    INDEX 01 00:57:09
  TRACK 72 AUDIO
    TITLE "5:cjc137_6240"
    INDEX 01 00:57:15
  TRACK 73 AUDIO
    TITLE "0:"
    INDEX 01 00:58:30
  TRACK 74 AUDIO
    TITLE "4:cjc137_6241"
    INDEX 01 00:59:38
  TRACK 75 AUDIO
    TITLE "0:"
    INDEX 01 01:00:41
  TRACK 76 AUDIO
    TITLE "6:cjc137_6242"
    INDEX 01 01:00:45
  TRACK 77 AUDIO
    TITLE "0:"
    INDEX 01 01:01:44
  TRACK 78 AUDIO
    TITLE "5:cjc137_6243"
    INDEX 01 01:01:50
  TRACK 79 AUDIO
    TITLE "0:"
    INDEX 01 01:02:55
  TRACK 80 AUDIO
    TITLE "4:cjc137_6244"
    INDEX 01 01:03:63
  TRACK 81 AUDIO
    TITLE "0:"
    INDEX 01 01:05:05
  TRACK 82 AUDIO
    TITLE "6:cjc137_6245"
    INDEX 01 01:05:11
  TRACK 83 AUDIO
    TITLE "0:"
    INDEX 01 01:06:14
  TRACK 84 AUDIO
    TITLE "5:cjc137_6246"
    INDEX 01 01:06:16
  TRACK 85 AUDIO
    TITLE "0:"
    INDEX 01 01:07:35
  TRACK 86 AUDIO
    TITLE "4:cjc137_6247"
    INDEX 01 01:08:46
  TRACK 87 AUDIO
    TITLE "0:"
    INDEX 01 01:09:59
  TRACK 88 AUDIO
    TITLE "6:cjc137_6248"
    INDEX 01 01:09:65
  TRACK 89 AUDIO
    TITLE "0:"
    INDEX 01 01:11:09
  TRACK 90 AUDIO
    TITLE "5:cjc137_6249"
    INDEX 01 01:11:17
  TRACK 91 AUDIO
    TITLE "0:"
    INDEX 01 01:12:30
  TRACK 92 AUDIO
    TITLE "4:cjc137_6250"
    INDEX 01 01:13:38
  TRACK 93 AUDIO
    TITLE "0:"
    INDEX 01 01:14:47
  TRACK 94 AUDIO
    TITLE "6:cjc137_6251"
    INDEX 01 01:14:57
  TRACK 95 AUDIO
    TITLE "0:"
    INDEX 01 01:16:05
  TRACK 96 AUDIO
    TITLE "5:cjc137_6252"
    INDEX 01 01:16:09
  TRACK 97 AUDIO
    TITLE "0:"
    INDEX 01 01:17:20
  TRACK 98 AUDIO
    TITLE "4:cjc137_6253"
    INDEX 01 01:18:27
  TRACK 99 AUDIO
    TITLE "0:"
    INDEX 01 01:19:27
  TRACK 100 AUDIO
    TITLE "6:cjc137_6254"
    INDEX 01 01:19:42
  TRACK 101 AUDIO
    TITLE "0:"
    INDEX 01 01:20:44
  TRACK 102 AUDIO
    TITLE "5:cjc137_6255"
    INDEX 01 01:20:51
  TRACK 103 AUDIO
    TITLE "0:"
    INDEX 01 01:21:51
  TRACK 104 AUDIO
    TITLE "4:cjc137_6256"
    INDEX 01 01:22:68
  TRACK 105 AUDIO
    TITLE "0:"
    INDEX 01 01:24:02
  TRACK 106 AUDIO
    TITLE "6:cjc137_6257"
    INDEX 01 01:24:16
  TRACK 107 AUDIO
    TITLE "0:"
    INDEX 01 01:25:23
  TRACK 108 AUDIO
    TITLE "5:cjc137_6258"
    INDEX 01 01:25:33
  TRACK 109 AUDIO
    TITLE "0:"
    INDEX 01 01:26:44
  TRACK 110 AUDIO
    TITLE "4:cjc137_6259"
    INDEX 01 01:27:57
  TRACK 111 AUDIO
    TITLE "0:"
    INDEX 01 01:28:63
  TRACK 112 AUDIO
    TITLE "6:cjc137_6260"
    INDEX 01 01:28:69
  TRACK 113 AUDIO
    TITLE "0:"
    INDEX 01 01:29:74
  TRACK 114 AUDIO
    TITLE "5:cjc137_6261"
    INDEX 01 01:30:03
  TRACK 115 AUDIO
    TITLE "0:"
    INDEX 01 01:31:08
  TRACK 116 AUDIO
    TITLE "4:cjc137_6262"
    INDEX 01 01:32:15
  TRACK 117 AUDIO
    TITLE "0:"
    INDEX 01 01:33:11
  TRACK 118 AUDIO
    TITLE "6:cjc137_6263"
    INDEX 01 01:33:19
  TRACK 119 AUDIO
    TITLE "0:"
    INDEX 01 01:34:18
  TRACK 120 AUDIO
    TITLE "5:cjc137_6264"
    INDEX 01 01:34:22
  TRACK 121 AUDIO
    TITLE "0:"
    INDEX 01 01:35:18
